<svg xmlns="http://www.w3.org/2000/svg" xml:space="preserve" id="svg312" width="1000" height="290.792" version="1.1" viewBox="0 0 264.583 76.939"><defs id="defs309"><style id="style859">.cls-1{fill:#2d3277}.cls-3{fill:#fff}</style></defs><g id="layer1" transform="translate(-49.876 -176.646)"><g id="surface1" style="stroke-width:.14" transform="translate(55.545 175.435) scale(1.88988)"><path id="path401" d="M49.21 20.07c0-8.77-10.901-15.93-24.35-15.93C11.397 4.149.5 11.3.5 20.07V21c0 9.309 9.531 16.852 24.352 16.852 14.91 0 24.347-7.543 24.347-16.852v-.93zm0 0" style="fill:#283373;fill-opacity:1;fill-rule:nonzero;stroke:none;stroke-width:.14"/><path id="path403" d="M48.27 20.07c0 8.27-10.48 14.98-23.41 14.98S1.44 28.34 1.44 20.07s10.48-14.98 23.41-14.98 23.419 6.7 23.419 14.98" style="fill:#ffcf00;fill-opacity:1;fill-rule:nonzero;stroke:none;stroke-width:.14"/><path id="path405" d="M17.078 15.34c-.008.02-.25.27-.09.46.371.47 1.512.74 2.66.481.692-.152 1.57-.86 2.422-1.531.918-.73 1.84-1.469 2.758-1.762.98-.308 1.602-.18 2.024-.047.449.137.988.43 1.84 1.07 1.597 1.2 8.038 6.829 9.16 7.798.898-.399 4.878-2.118 10.289-3.309-.47-2.89-2.23-5.531-4.891-7.691-3.71 1.562-8.25 2.37-12.68.21-.02-.007-2.422-1.148-4.789-1.09-3.52.083-5.043 1.602-6.66 3.22zm0 0" style="fill:#fff;fill-opacity:1;fill-rule:nonzero;stroke:none;stroke-width:.14"/><path id="path407" d="M37.59 22.422c-.078-.07-7.57-6.633-9.27-7.91-.98-.742-1.53-.934-2.101-1-.297-.043-.707.02-1 .097-.79.211-1.82.91-2.739 1.63-.949.761-1.851 1.472-2.68 1.66-1.062.242-2.359-.04-2.948-.438-.243-.16-.41-.352-.493-.54-.218-.51.18-.91.25-.98l2.07-2.242c.243-.238.481-.48.731-.719-.672.09-1.289.258-1.89.418-.75.211-1.47.41-2.2.41-.3 0-1.941-.269-2.25-.347-1.87-.512-3.52-1.012-5.968-2.16-2.942 2.187-4.91 4.93-5.48 7.937.417.114 1.097.313 1.39.383 6.66 1.48 8.726 3.008 9.11 3.32a2.195 2.195 0 0 1 3.45.2c.377-.301.908-.563 1.588-.563.309 0 .63.063.95.172.75.262 1.14.762 1.34 1.21.25-.108.562-.198.929-.198.36 0 .73.078 1.11.238 1.23.531 1.421 1.73 1.312 2.64.09-.011.18-.011.27-.011 1.46 0 2.64 1.18 2.64 2.64 0 .45-.121.872-.32 1.25.398.22 1.41.731 2.289.61.71-.09.98-.328 1.07-.469.07-.09.14-.2.07-.281l-1.879-2.09s-.312-.289-.21-.41c.109-.117.3.05.43.16.96.8 2.12 2 2.12 2 .02.012.098.172.528.242.37.07 1.03.028 1.48-.351.121-.09.23-.211.332-.328-.012.007-.012.007-.02.02.477-.61-.05-1.243-.05-1.243l-2.192-2.457s-.308-.293-.21-.41c.101-.102.3.047.43.168.69.582 1.683 1.57 2.62 2.492.18.129 1.012.648 2.102-.07.66-.442.8-.973.777-1.372-.047-.53-.457-.91-.457-.91l-3-3.011s-.32-.27-.2-.41c.09-.118.298.05.43.16.95.8 3.54 3.171 3.54 3.171.039.032.93.66 2.03-.039.388-.25.65-.632.669-1.07.039-.75-.5-1.2-.5-1.2" style="fill:#fff;fill-opacity:1;fill-rule:nonzero;stroke:none;stroke-width:.14"/><path id="path409" d="M23.059 26.238c-.457-.008-.97.274-1.04.23-.039-.019.032-.206.07-.32.04-.109.661-1.949-.827-2.59-1.14-.488-1.84.063-2.082.313-.059.059-.09.059-.102-.02-.02-.331-.168-1.23-1.156-1.53-1.41-.43-2.313.55-2.543.91a1.626 1.626 0 0 0-1.61-1.43c-.898 0-1.628.73-1.64 1.629 0 .898.73 1.629 1.633 1.629.437 0 .84-.168 1.129-.457.007.007.007.02.007.058-.07.399-.199 1.871 1.34 2.469.621.242 1.14.062 1.582-.238.13-.09.149-.051.13.07-.06.379.01 1.187 1.152 1.648.859.352 1.367-.007 1.707-.32.152-.129.191-.11.191.09.04 1.09.95 1.96 2.05 1.96 1.141 0 2.06-.917 2.06-2.05a2.06 2.06 0 0 0-2.051-2.05" style="fill:#fff;fill-opacity:1;fill-rule:nonzero;stroke:none;stroke-width:.14"/><path id="path411" d="M37.879 21.629c-2.309-2.02-7.649-6.66-9.098-7.738-.832-.621-1.39-.95-1.883-1.102a3.001 3.001 0 0 0-.93-.14c-.366 0-.757.07-1.179.203-.93.296-1.867 1.039-2.77 1.75l-.05.039c-.84.668-1.707 1.359-2.36 1.5-.289.058-.578.097-.87.097-.727 0-1.4-.207-1.637-.527-.043-.05-.012-.14.078-.262l.011-.02 2.028-2.19c1.59-1.59 3.09-3.09 6.562-3.169h.168c2.153 0 4.313.97 4.551 1.078 2.02.993 4.102 1.493 6.2 1.493 2.179 0 4.44-.54 6.812-1.63a19.381 19.381 0 0 0-.82-.652c-2.083.903-4.063 1.36-5.981 1.36-1.95 0-3.91-.469-5.8-1.399-.102-.05-2.481-1.172-4.95-1.172h-.2c-2.91.07-4.542 1.102-5.652 2-1.07.032-1.988.282-2.82.512-.73.2-1.367.38-1.98.38-.25 0-.707-.02-.75-.02-.707-.02-4.29-.899-7.137-1.98-.293.21-.57.42-.844.632 2.973 1.219 6.594 2.156 7.742 2.238.32.02.66.059 1 .059.758 0 1.508-.207 2.239-.418.43-.121.91-.25 1.41-.352-.13.13-.27.262-.399.403l-2.058 2.226c-.16.16-.524.602-.282 1.14.09.223.282.43.54.602.492.328 1.37.559 2.19.559.31 0 .599-.027.868-.09.871-.187 1.774-.918 2.73-1.68.77-.609 1.864-1.379 2.692-1.609a3.3 3.3 0 0 1 .75-.102c.07 0 .129 0 .191.012.547.07 1.079.262 2.028.969 1.691 1.27 9.203 7.832 9.27 7.902 0 0 .48.418.452 1.098-.02.383-.23.723-.601.96-.32.2-.649.31-.98.31-.5 0-.848-.239-.872-.25-.027-.02-2.597-2.38-3.539-3.169-.148-.12-.3-.242-.437-.242a.26.26 0 0 0-.203.09c-.149.184.02.442.21.602l3 3.02s.372.35.41.812c.02.5-.218.918-.71 1.238-.348.23-.707.352-1.059.352-.46 0-.781-.211-.86-.262l-.429-.418c-.793-.774-1.601-1.582-2.191-2.07-.14-.122-.301-.23-.45-.23-.07 0-.14.026-.19.077-.071.082-.118.211.05.442.07.09.148.168.148.168l2.192 2.46c.02.02.449.54.05 1.051l-.082.102c-.07.066-.136.137-.199.2-.37.308-.87.339-1.07.339-.11 0-.207-.012-.3-.031-.22-.04-.36-.102-.43-.18l-.028-.031c-.121-.117-1.223-1.25-2.14-2.008-.122-.102-.27-.23-.43-.23a.264.264 0 0 0-.2.09c-.18.199.09.488.208.6l1.87 2.06c0 .019-.03.058-.07.128-.07.09-.289.32-.968.403-.082.008-.172.02-.25.02-.7 0-1.442-.34-1.832-.544.171-.367.27-.777.27-1.18a2.79 2.79 0 0 0-2.79-2.788h-.098c.047-.7-.05-2.032-1.41-2.622a2.955 2.955 0 0 0-1.172-.257c-.3 0-.578.05-.847.148-.282-.55-.75-.95-1.364-1.16a3.04 3.04 0 0 0-1-.18c-.57 0-1.09.172-1.558.5a2.356 2.356 0 0 0-1.828-.89c-.621 0-1.223.25-1.66.691-.582-.441-2.891-1.91-9.063-3.309-.3-.07-.988-.261-1.41-.39-.07.328-.117.668-.16 1.008 0 0 1.14.27 1.36.32 6.312 1.402 8.39 2.86 8.741 3.133a2.365 2.365 0 0 0 2.18 3.27c.148 0 .29-.012.43-.044.199.961.82 1.692 1.78 2.063.278.11.56.16.84.16.18 0 .36-.02.54-.07.18.449.582 1.007 1.469 1.37.312.13.62.188.93.188.25 0 .491-.039.722-.129a2.789 2.789 0 0 0 2.578 1.73c.75 0 1.473-.3 2-.85.45.25 1.402.698 2.36.698.12 0 .242-.007.363-.02.949-.116 1.398-.487 1.597-.776.04-.051.07-.102.102-.16.219.058.469.117.758.117.52 0 1.02-.18 1.531-.547.5-.364.852-.871.898-1.313v-.02c.172.032.34.051.512.051.54 0 1.059-.171 1.57-.5.97-.64 1.141-1.468 1.122-2.011.168.043.34.05.52.05.5 0 1-.148 1.468-.449.601-.379.96-.968 1.02-1.66a2.237 2.237 0 0 0-.32-1.34c1.632-.699 5.35-2.058 9.73-3.05-.032-.34-.079-.68-.141-1.008-5.309 1.218-9.258 2.93-10.25 3.367m-14.82 8.57c-1.028 0-1.868-.8-1.899-1.82 0-.09-.012-.32-.21-.32-.079 0-.15.05-.231.12-.23.212-.508.423-.938.423-.191 0-.402-.043-.62-.133-1.09-.438-1.102-1.188-1.06-1.489.008-.082.02-.16-.042-.23L18 26.7h-.07c-.059 0-.11.019-.192.081-.308.219-.617.328-.918.328a1.47 1.47 0 0 1-.52-.097c-1.429-.563-1.32-1.91-1.25-2.313.009-.078-.01-.148-.062-.187l-.097-.082-.09.07c-.281.27-.64.422-1.031.422-.82 0-1.489-.672-1.489-1.492s.668-1.489 1.489-1.48c.742 0 1.37.562 1.468 1.3l.051.398.223-.34c.02-.038.629-.949 1.726-.949.211 0 .434.032.653.102.879.27 1.03 1.07 1.05 1.398.02.192.149.2.18.2.078 0 .129-.047.168-.09a1.538 1.538 0 0 1 1.09-.457c.262 0 .531.058.82.18 1.403.597.762 2.378.762 2.398-.121.289-.133.422-.012.5l.051.031h.04c.062 0 .14-.031.269-.07.191-.07.48-.16.75-.16 1.05.007 1.91.87 1.91 1.91 0 1.05-.86 1.898-1.91 1.898" style="fill:#283373;fill-opacity:1;fill-rule:nonzero;stroke:none;stroke-width:.14"/><path id="path413" d="M132.18 9.93c-.88-1.102-2.211-1.649-4-1.649-1.79 0-3.121.547-4 1.649-.88 1.101-1.32 2.398-1.32 3.898 0 1.531.44 2.832 1.32 3.922.879 1.078 2.21 1.629 4 1.629 1.789 0 3.12-.54 4-1.629.879-1.09 1.32-2.39 1.32-3.922 0-1.5-.441-2.797-1.32-3.898M130 16.238c-.43.57-1.04.852-1.828.852-.8 0-1.41-.281-1.844-.852-.43-.566-.637-1.367-.637-2.41 0-1.039.207-1.848.637-2.406.434-.563 1.043-.844 1.844-.844.797 0 1.406.281 1.828.844.43.558.64 1.367.64 2.406 0 1.043-.21 1.852-.64 2.41" style="fill:#283373;fill-opacity:1;fill-rule:nonzero;stroke:none;stroke-width:.14"/><path id="path415" d="M109.719 9c-.89-.45-1.91-.68-3.059-.68-1.762 0-3.012.461-3.738 1.38-.461.59-.711 1.34-.774 2.25h2.641c.063-.4.191-.72.39-.962.27-.316.731-.476 1.391-.476.578 0 1.032.078 1.328.25.301.16.454.457.454.886 0 .352-.204.614-.59.782-.223.101-.582.18-1.09.242l-.934.117c-1.058.133-1.867.36-2.41.672-1 .578-1.5 1.5-1.5 2.789 0 .988.313 1.762.934 2.29.617.538 1.41.769 2.36.812 5.956.27 5.898-3.141 5.948-3.852v-3.922c-.011-1.258-.46-2.117-1.351-2.578m-1.39 5.96c-.02.911-.278 1.54-.778 1.892-.5.347-1.051.52-1.653.52-.378 0-.699-.102-.957-.313-.261-.207-.39-.547-.39-1.008 0-.52.21-.91.64-1.16.258-.153.668-.27 1.258-.371l.621-.122c.309-.058.551-.117.73-.187.18-.07.348-.152.528-.262zm0 0" style="fill:#283373;fill-opacity:1;fill-rule:nonzero;stroke:none;stroke-width:.14"/><path id="path417" d="M96.121 10.66c.68 0 1.18.211 1.508.63.223.312.36.66.41 1.05h2.941c-.16-1.48-.68-2.52-1.558-3.11-.883-.582-2.012-.878-3.383-.878-1.617 0-2.89.5-3.809 1.488-.921.988-1.378 2.379-1.378 4.172 0 1.578.418 2.867 1.25 3.867.828.992 2.128 1.492 3.898 1.492s3.102-.601 4-1.793c.559-.738.879-1.52.95-2.348h-2.93c-.06.551-.23.989-.508 1.34-.282.34-.762.52-1.434.52-.95 0-1.598-.43-1.937-1.3-.192-.462-.282-1.08-.282-1.84 0-.802.102-1.438.282-1.93.347-.899 1.007-1.36 1.98-1.36" style="fill:#283373;fill-opacity:1;fill-rule:nonzero;stroke:none;stroke-width:.14"/><path id="path419" d="M90.059 8.36c-6.04 0-5.68 5.35-5.68 5.35v5.43h2.742v-5.1c0-.83.11-1.45.309-1.86.379-.711 1.11-1.07 2.21-1.07.079 0 .188 0 .329.011.133.008.281.02.46.04V8.378c-.12-.008-.199-.008-.23-.02h-.14" style="fill:#283373;fill-opacity:1;fill-rule:nonzero;stroke:none;stroke-width:.14"/><path id="path421" d="M79.988 16.3c-.117.16-.238.302-.379.41-.39.321-.91.419-1.53.419-.59 0-1.04-.09-1.458-.348-.68-.422-1.07-1.133-1.11-2.18h7.59c.008-.902-.023-1.59-.09-2.07-.132-.82-.402-1.531-.831-2.152-.47-.7-1.07-1.219-1.801-1.54-.73-.32-1.54-.487-2.45-.487-1.53 0-2.769.476-3.718 1.437-.961.961-1.441 2.352-1.441 4.152 0 1.93.53 3.32 1.59 4.168 1.062.852 2.28 1.282 3.671 1.282 1.68 0 2.989-.512 3.918-1.52.5-.531.82-1.062.95-1.582h-2.91zm-3.68-5.1c.391-.4.93-.59 1.633-.59.637 0 1.18.19 1.618.562.43.367.68.918.722 1.637H75.59c.09-.68.332-1.22.719-1.61" style="fill:#283373;fill-opacity:1;fill-rule:nonzero;stroke:none;stroke-width:.14"/><path id="path423" d="M71.672 19.14h-2.5v-6.312c0-.578-.192-1.95-1.844-1.95-1.098 0-1.898.794-1.898 1.95v6.313h-2.508v-6.313c0-.578-.172-1.95-1.82-1.95-1.122 0-1.903.794-1.903 1.95v6.313h-2.508v-6.25c0-2.602 1.73-4.57 4.399-4.57 1.332 0 2.41.558 3.11 1.449a4 4 0 0 1 3.109-1.45c2.73 0 4.351 1.89 4.351 4.57v6.25zm0 0" style="fill:#283373;fill-opacity:1;fill-rule:nonzero;stroke:none;stroke-width:.14"/><path id="path425" d="M122.04 5.07s-2.759-.289-2.759 1.918V9.93a3.384 3.384 0 0 0-1.191-1.149c-.488-.281-1.05-.422-1.68-.422-1.37 0-2.46.512-3.281 1.532-.82 1.02-1.23 2.488-1.23 4.27 0 1.538.421 2.808 1.25 3.788.831.98 2.46 1.41 3.91 1.41 5.05 0 4.992-4.328 4.992-4.328zm-3.29 11.2c-.398.57-.988.859-1.762.859-.77 0-1.347-.29-1.718-.867-.38-.582-.57-1.422-.57-2.383 0-.89.19-1.64.562-2.238.367-.602.957-.903 1.75-.903.52 0 .976.172 1.379.5.64.551.96 1.532.96 2.801.009.91-.203 1.652-.601 2.23" style="fill:#283373;fill-opacity:1;fill-rule:nonzero;stroke:none;stroke-width:.14"/><path id="path427" d="M90.621 32.238c-.11.16-.242.301-.371.41-.39.32-.93.43-1.54.43-.581 0-1.03-.09-1.448-.348-.684-.421-1.043-1.14-1.082-2.18h7.52c.01-.89-.02-1.57-.09-2.05-.13-.809-.4-1.52-.82-2.14a4.31 4.31 0 0 0-1.778-1.532c-.723-.316-1.532-.476-2.434-.476-1.508 0-2.738.476-3.687 1.43-.95.956-1.422 2.327-1.422 4.109 0 1.91.52 3.289 1.582 4.129 1.05.851 2.258 1.27 3.64 1.27 1.66 0 2.957-.5 3.88-1.509.5-.531.808-1.05.94-1.57h-2.89ZM86.97 27.18c.383-.39.922-.59 1.61-.59.64 0 1.171.191 1.6.558.43.372.673.91.72 1.633H86.25c.102-.672.34-1.203.719-1.601" style="fill:#283373;fill-opacity:1;fill-rule:nonzero;stroke:none;stroke-width:.14"/><path id="path429" d="M71.781 24.39c-.633 0-1.191.141-1.68.41a3.26 3.26 0 0 0-1.19 1.15v-4.93s-2.763-.27-2.763 1.968v7.992s-.058 4.329 4.993 4.329c1.449 0 3.078-.43 3.91-1.418.828-.98 1.25-2.25 1.25-3.79 0-1.78-.41-3.171-1.23-4.19-.833-1.013-1.923-1.52-3.29-1.52m1.13 7.828c-.38.582-.95.86-1.72.86s-1.363-.278-1.761-.86c-.399-.57-.602-1.309-.602-2.23 0-1.27.32-2.18.961-2.727a2.09 2.09 0 0 1 1.383-.5c.797 0 1.379.297 1.75.898.367.602.558 1.352.558 2.238 0 .973-.19 1.743-.57 2.32" style="fill:#283373;fill-opacity:1;fill-rule:nonzero;stroke:none;stroke-width:.14"/><path id="path431" d="M82.941 24.379h-.132c-6.04 0-5.688 5.351-5.688 5.351v5.348h2.738V30.07c0-.84.102-1.449.32-1.851.372-.707 1.11-1.07 2.212-1.07.078 0 .187 0 .32.011.129.012.289.02.46.04v-2.79c-.112-.031-.19-.031-.23-.031" style="fill:#283373;fill-opacity:1;fill-rule:nonzero;stroke:none;stroke-width:.14"/><path id="path433" d="M56.691 22.988v12.07h2.57V21.02c.009 0-2.57-.11-2.57 1.968" style="fill:#283373;fill-opacity:1;fill-rule:nonzero;stroke:none;stroke-width:.14"/><path id="path435" d="M61.371 21h2.75v2.73h-2.75zm0 0" style="fill:#283373;fill-opacity:1;fill-rule:nonzero;stroke:none;stroke-width:.14"/><path id="path437" d="M61.371 24.66h2.758v10.41H61.37zm0 0" style="fill:#283373;fill-opacity:1;fill-rule:nonzero;stroke:none;stroke-width:.14"/></g></g></svg>